<svg version="1.2" xmlns="http://www.w3.org/2000/svg" viewBox="0 0 434 434" width="434" height="434">
	<title>xRocket</title>
	<defs>
		<clipPath clipPathUnits="userSpaceOnUse" id="cp1">
			<path d="m433 1v432h-432v-432z"/>
		</clipPath>
		<linearGradient id="g1" x2="1" gradientUnits="userSpaceOnUse" gradientTransform="matrix(0,432,-432,0,217,1)">
			<stop offset="0" stop-color="#5ebef0"/>
			<stop offset="1" stop-color="#0295fd"/>
		</linearGradient>
	</defs>
	<style>
		.s0 { fill: url(#g1) } 
		.s1 { fill: #ffffff } 
	</style>
	<g id="Clip-Path" clip-path="url(#cp1)">
		<g>
			<path class="s0" d="m217 433c-119.4 0-216-96.6-216-216 0-119.4 96.6-216 216-216 119.4 0 216 96.6 216 216 0 119.4-96.6 216-216 216z"/>
			<path fill-rule="evenodd" class="s1" d="m166.4 307.7c-5.8 5.7-18.2 11.1-37.7 16.8-13.9 4-26.1 6.5-26.6 6.6q-1.2 0.3-2.4 0c-3.2-0.6-5.2-3.8-4.4-7 0.1-0.5 3.1-12.6 7.5-26.4 6.4-19.3 12.3-31.5 18.1-37.1 6.9-6.7 15.5-10.2 24.3-10 8.4 0.2 16.4 3.9 22.6 10.2 6.1 6.4 9.4 14.6 9.4 23-0.1 8.8-3.9 17.3-10.8 23.9zm109.3-43.6c2.2-0.7 5.2 1.7 5.9 5.3 0.6 2.5 1.3 5.6-0.1 7.9-10 17.2-47.7 73.2-50.7 78.9-0.8 1.5-2.7 1.6-3.1 1.6-0.3 0-4.1 0.3-3.5-2.9 1.4-7.2-0.9-45.1-4.4-51.7-0.3-0.6 0-1.7 0.4-2 17.4-10.7 35.7-25 55.5-37.1zm56.5-150.6c0.9 9.2 0.7 21.4 0 34.5l-1.3 9-2.1 10.5-3.2 11.6-4.1 9.9-3.4 7.7-5.3 9.2-5.2 7.3-4.8 6.2-5.5 6-6.7 6.5-7.1 5.8-8.9 7.1-9.3 6.4-8 5.9-9.2 7-8 4.9-9.4 6-8.7 5.7-6.1 4.5c-1.5 1-3 1.8-3.9 0.6-14.6-30.9-36.6-54.3-66.9-69.4-2.9-1.3-3.5-3.5-2.1-6.5l15-23 15.3-22.6 13.5-18.3 16.5-19 16.7-13.3 11.2-6.4 11.4-5.2 14.4-4.4 13.3-2.7 9.4-1.2c10.5-0.9 21.8-0.8 33.6 0l8.7 1 2.7 1.6 3.9 3.6 2.5 5zm-59.8 74.7c19.3-19.3 25.1-38.5 14.7-49.1-9.9-10.1-29.7-4-48.5 15.1-19.7 20-26.6 41.4-17.5 50.8 10.4 10.7 31.9 2.5 51.3-16.9zm-146.7 19c-0.2 0.5-1.3 0.8-1.9 0.5-6.6-3.5-44.5-5.9-51.7-4.5-3.2 0.7-2.9-3.2-2.9-3.5 0-0.3 0.1-2.2 1.6-3 5.7-3 61.7-40.7 78.9-50.8 2.2-1.3 5.4-0.6 7.9 0 3.6 0.6 6 3.7 5.3 5.9-12.1 19.8-26.4 38.1-37.2 55.4z"/>
		</g>
	</g>
</svg>